<?xml version="1.0" encoding="UTF-8"?>
<svg id="Capa_2" data-name="Capa 2" xmlns="http://www.w3.org/2000/svg" viewBox="0 0 430.77 19.17">
  <defs>
    <style>
      .cls-1 {
        fill: #d3e2ef;
      }

      .cls-2 {
        fill: #feedee;
      }
    </style>
  </defs>
  <g id="OBJECTS">
    <path class="cls-1" d="M430.77,8c0,6.17-4.59,11.17-10.26,11.17s-10.26-5-10.26-11.17V0h20.52v8Z"/>
    <path class="cls-2" d="M410.25,8c0,6.17-4.59,11.17-10.26,11.17s-10.26-5-10.26-11.17V0h20.52v8Z"/>
    <path class="cls-1" d="M389.76,8c0,6.17-4.59,11.17-10.26,11.17s-10.26-5-10.26-11.17V0h20.52v8Z"/>
    <path class="cls-2" d="M369.24,8c0,6.17-4.59,11.17-10.26,11.17s-10.26-5-10.26-11.17V0h20.52v8Z"/>
    <path class="cls-1" d="M348.74,8c0,6.17-4.59,11.17-10.26,11.17s-10.26-5-10.26-11.17V0h20.52v8Z"/>
    <path class="cls-2" d="M328.23,8c0,6.17-4.59,11.17-10.26,11.17s-10.26-5-10.26-11.17V0h20.52v8Z"/>
    <path class="cls-1" d="M307.73,8c0,6.17-4.59,11.17-10.26,11.17s-10.26-5-10.26-11.17V0h20.52v8Z"/>
    <path class="cls-2" d="M287.21,8c0,6.17-4.59,11.17-10.26,11.17s-10.26-5-10.26-11.17V0h20.52v8Z"/>
    <path class="cls-1" d="M266.72,8c0,6.17-4.59,11.17-10.26,11.17s-10.26-5-10.26-11.17V0h20.52v8Z"/>
    <path class="cls-2" d="M246.2,8c0,6.17-4.59,11.17-10.26,11.17s-10.26-5-10.26-11.17V0h20.52v8Z"/>
    <path class="cls-1" d="M225.71,8c0,6.17-4.59,11.17-10.26,11.17s-10.26-5-10.26-11.17V0h20.52v8Z"/>
    <path class="cls-2" d="M205.19,8c0,6.17-4.59,11.17-10.26,11.17s-10.26-5-10.26-11.17V0h20.52v8Z"/>
    <path class="cls-1" d="M184.67,8c0,6.17-4.59,11.17-10.26,11.17s-10.26-5-10.26-11.17V0h20.52v8Z"/>
    <path class="cls-2" d="M164.15,8c0,6.17-4.59,11.17-10.26,11.17s-10.26-5-10.26-11.17V0h20.52v8Z"/>
    <path class="cls-1" d="M143.66,8c0,6.17-4.59,11.17-10.26,11.17s-10.26-5-10.26-11.17V0h20.52v8Z"/>
    <path class="cls-2" d="M123.14,8c0,6.17-4.59,11.17-10.26,11.17s-10.26-5-10.26-11.17V0h20.52v8Z"/>
    <path class="cls-1" d="M102.57,8c0,6.17-4.59,11.17-10.26,11.17s-10.26-5-10.26-11.17V0h20.52v8Z"/>
    <path class="cls-2" d="M82.05,8c0,6.17-4.59,11.17-10.26,11.17s-10.26-5-10.26-11.17V0h20.52v8Z"/>
    <path class="cls-1" d="M61.55,8c0,6.17-4.59,11.17-10.26,11.17s-10.26-5-10.26-11.17V0h20.52v8Z"/>
    <path class="cls-1" d="M20.52,8c0,6.17-4.59,11.17-10.26,11.17S0,14.17,0,8V0h20.52v8Z"/>
    <path class="cls-2" d="M41.04,8c0,6.17-4.59,11.17-10.26,11.17s-10.26-5-10.26-11.17V0h20.52v8Z"/>
  </g>
</svg>